<svg xmlns="http://www.w3.org/2000/svg" viewBox="300.588 289.688 418.512 75.125">
  <defs>
    <style>
      .cls-1 {
        fill: #fff;
      }

      .cls-2 {
        fill: none;
        stroke: #fff;
        stroke-width: 0.824px;
      }

      .cls-3 {
        fill: #f48220;
      }

      .cls-4 {
        fill: #08519f;
      }

      .cls-5 {
        fill: #4d4d4d;
      }
    </style>
  </defs>
  <g id="XMLID_15_" transform="translate(300.6 289.701)">
    <g id="XMLID_34_">
      <path id="XMLID_41_" class="cls-1" d="M83.6,22V11.8S83.3.3,69.3.4H14.5C.7.3.4,13.4.4,11.8V63.7s.3,9.5,12,10.9l.8.1,58.2-.1C83.3,73.3,83.5,63,83.5,63.7V30.8Z"/>
      <path id="XMLID_40_" class="cls-2" d="M83.6,22V11.8S83.3.3,69.3.4H14.5C.7.3.4,13.4.4,11.8V63.7s.3,9.5,12,10.9l.8.1,58.2-.1C83.3,73.3,83.5,63,83.5,63.7V30.8Z"/>
      <path id="XMLID_39_" class="cls-3" d="M36.7.4,26.6,15.1s9.9-7.3,16.9-6.2c0,0,4.3.5,12.4,5.9l11,6.8S49.4,18.8,33,23.9c0,0-27.5,7.9-32.6,35.7v-48S.7.2,14.6.3H36.7Z"/>
      <path id="XMLID_38_" class="cls-3" d="M83.6,11.7S83.3.3,69.4.4H47.9L83.6,22Z"/>
      <path id="XMLID_35_" class="cls-4" d="M51.5,62.5a8.9,8.9,0,1,1,8.9-8.9,8.92,8.92,0,0,1-8.9,8.9m-22-27.2C6.8,51.6,13.2,74.7,13.2,74.7H71.5c11.8-1.5,12-11,12-11V30.8s-31.2-11.9-54,4.5"/>
    </g>
    <g id="XMLID_16_">
      <path id="XMLID_32_" class="cls-5" d="M130.9,47.1V38.5H153V58.7a28.92,28.92,0,0,1-9.3,5.5,33.739,33.739,0,0,1-12.4,2.4,28.02,28.02,0,0,1-13.9-3.3,20.74,20.74,0,0,1-8.9-9.6,30.685,30.685,0,0,1-3-13.5,29.357,29.357,0,0,1,3.3-14.1,22.805,22.805,0,0,1,9.7-9.5,26.257,26.257,0,0,1,12.2-2.5c6.3,0,11.2,1.3,14.8,4a17.849,17.849,0,0,1,6.8,11L142.1,31a10.812,10.812,0,0,0-4-5.9,12.482,12.482,0,0,0-7.4-2.2c-4.5,0-8,1.4-10.7,4.3s-4,7.1-4,12.7c0,6,1.3,10.6,4,13.6A13.472,13.472,0,0,0,130.5,58a16.755,16.755,0,0,0,6.5-1.3,21.409,21.409,0,0,0,5.6-3.1V47.2H130.9Z"/>
      <path id="XMLID_29_" class="cls-5" d="M180.9,54l9.7,1.6a15.132,15.132,0,0,1-5.9,8.1,17.173,17.173,0,0,1-10.1,2.8c-6.4,0-11.1-2.1-14.2-6.3a21.407,21.407,0,0,1-3.6-12.7c0-6.1,1.6-10.9,4.8-14.3A15.6,15.6,0,0,1,173.7,28c5.5,0,9.8,1.8,13,5.4s4.7,9.2,4.5,16.6H166.8a9.886,9.886,0,0,0,2.4,6.7,7.413,7.413,0,0,0,5.6,2.4,5.956,5.956,0,0,0,3.8-1.2A7.005,7.005,0,0,0,180.9,54Zm.6-9.8c-.1-2.8-.8-5-2.2-6.4a7.135,7.135,0,0,0-10.4.1,8.559,8.559,0,0,0-2,6.3h14.6Z"/>
      <path id="XMLID_26_" class="cls-5" d="M194,46.8a19.907,19.907,0,0,1,2.4-9.4,16.748,16.748,0,0,1,6.8-6.9,20.035,20.035,0,0,1,9.8-2.4,18.458,18.458,0,0,1,13.7,5.4c3.6,3.6,5.3,8.2,5.3,13.7A18.688,18.688,0,0,1,226.6,61,18.088,18.088,0,0,1,213,66.5a21.955,21.955,0,0,1-9.7-2.3,15.66,15.66,0,0,1-7-6.7A22.892,22.892,0,0,1,194,46.8Zm10,.5c0,3.7.9,6.4,2.6,8.4a8.512,8.512,0,0,0,12.8,0c1.7-1.9,2.6-4.8,2.6-8.5,0-3.6-.9-6.4-2.6-8.3a8.512,8.512,0,0,0-12.8,0C204.9,40.9,204,43.7,204,47.3Z"/>
      <path id="XMLID_24_" class="cls-5" d="M248.7,65.8V14.9h10l20.8,33.9V14.9H289V65.7H278.7L258.2,32.6V65.7h-9.5Z"/>
      <path id="XMLID_21_" class="cls-5" d="M317.6,54l9.7,1.6a15.132,15.132,0,0,1-5.9,8.1,17.173,17.173,0,0,1-10.1,2.8c-6.4,0-11.1-2.1-14.2-6.3a21.407,21.407,0,0,1-3.6-12.7c0-6.1,1.6-10.9,4.8-14.3A15.6,15.6,0,0,1,310.4,28c5.5,0,9.8,1.8,13,5.4s4.7,9.2,4.5,16.6H303.5a9.886,9.886,0,0,0,2.4,6.7,7.413,7.413,0,0,0,5.6,2.4,5.955,5.955,0,0,0,3.8-1.2A7.005,7.005,0,0,0,317.6,54Zm.6-9.8c-.1-2.8-.8-5-2.2-6.4a7.134,7.134,0,0,0-10.4.1,8.559,8.559,0,0,0-2,6.3h14.6Z"/>
      <path id="XMLID_19_" class="cls-5" d="M341.2,65.8,329.6,29h9.5L346,53.1,352.3,29h9.4l6.1,24.1,7-24.1h9.6L372.6,65.8h-9.4l-6.3-23.7-6.2,23.7Z"/>
      <path id="XMLID_17_" class="cls-5" d="M384,55.2l9.8-1.5a7.4,7.4,0,0,0,2.5,4.3,8.551,8.551,0,0,0,5.3,1.5,9.975,9.975,0,0,0,5.7-1.4,2.931,2.931,0,0,0,1.3-2.6,2.268,2.268,0,0,0-.7-1.8,7.57,7.57,0,0,0-3.3-1.3c-7.9-1.7-12.8-3.3-14.9-4.7a9.5,9.5,0,0,1-4.4-8.3,10.088,10.088,0,0,1,3.8-8q3.75-3.3,11.7-3.3c5,0,8.8.8,11.2,2.5a13.172,13.172,0,0,1,5.1,7.3l-9.2,1.7a5.9,5.9,0,0,0-2.2-3.3,7.99,7.99,0,0,0-4.7-1.1c-2.6,0-4.4.4-5.5,1.1a2.432,2.432,0,0,0-1.1,2,2.12,2.12,0,0,0,1,1.8c.9.6,3.9,1.6,9.1,2.7,5.2,1.2,8.8,2.6,10.9,4.3a9,9,0,0,1,3.1,7.2,11.072,11.072,0,0,1-4.2,8.7c-2.8,2.4-7,3.6-12.5,3.6-5,0-9-1-11.9-3.1A13.483,13.483,0,0,1,384,55.2Z"/>
    </g>
  </g>
</svg>
